<svg width="392" height="61" viewBox="0 0 392 61" fill="none" xmlns="http://www.w3.org/2000/svg">
<path d="M1 28.0637V32.1746" stroke="#8E8E8C" stroke-width="2" stroke-miterlimit="10" stroke-linecap="round"/>
<path d="M7.29004 27.4663V32.7718" stroke="#8E8E8C" stroke-width="2" stroke-miterlimit="10" stroke-linecap="round"/>
<path d="M13.5801 28.0889V32.1493" stroke="#8E8E8C" stroke-width="2" stroke-miterlimit="10" stroke-linecap="round"/>
<path d="M19.8711 28.3008V31.9375" stroke="#8E8E8C" stroke-width="2" stroke-miterlimit="10" stroke-linecap="round"/>
<path d="M26.1611 27.8096V32.4285" stroke="#8E8E8C" stroke-width="2" stroke-miterlimit="10" stroke-linecap="round"/>
<path d="M32.4512 26.8274V33.4106" stroke="#8E8E8C" stroke-width="2" stroke-miterlimit="10" stroke-linecap="round"/>
<path d="M38.7422 25.748V34.4903" stroke="#8E8E8C" stroke-width="2" stroke-miterlimit="10" stroke-linecap="round"/>
<path d="M45.0322 26.4556V33.7824" stroke="#8E8E8C" stroke-width="2" stroke-miterlimit="10" stroke-linecap="round"/>
<path d="M51.3223 26.4312V33.8068" stroke="#8E8E8C" stroke-width="2" stroke-miterlimit="10" stroke-linecap="round"/>
<path d="M57.6133 25.9878V34.2502" stroke="#8E8E8C" stroke-width="2" stroke-miterlimit="10" stroke-linecap="round"/>
<path d="M63.9033 25.7722V34.4658" stroke="#8E8E8C" stroke-width="2" stroke-miterlimit="10" stroke-linecap="round"/>
<path d="M70.1934 23.7292V36.5089" stroke="#8E8E8C" stroke-width="2" stroke-miterlimit="10" stroke-linecap="round"/>
<path d="M76.4834 23.9722V36.2657" stroke="#8E8E8C" stroke-width="2" stroke-miterlimit="10" stroke-linecap="round"/>
<path d="M82.7744 24.394V35.8441" stroke="#8E8E8C" stroke-width="2" stroke-miterlimit="10" stroke-linecap="round"/>
<path d="M89.0645 24.4727V35.7654" stroke="#8E8E8C" stroke-width="2" stroke-miterlimit="10" stroke-linecap="round"/>
<path d="M95.3545 24.3298V35.9083" stroke="#8E8E8C" stroke-width="2" stroke-miterlimit="10" stroke-linecap="round"/>
<path d="M101.646 25.0933V35.145" stroke="#8E8E8C" stroke-width="2" stroke-miterlimit="10" stroke-linecap="round"/>
<path d="M107.936 22.3811V37.8569" stroke="#8E8E8C" stroke-width="2" stroke-miterlimit="10" stroke-linecap="round"/>
<path d="M114.226 22.1331V38.105" stroke="#8E8E8C" stroke-width="2" stroke-miterlimit="10" stroke-linecap="round"/>
<path d="M120.517 21.637V38.6012" stroke="#8E8E8C" stroke-width="2" stroke-miterlimit="10" stroke-linecap="round"/>
<path d="M126.807 22.8936V37.3443" stroke="#8E8E8C" stroke-width="2" stroke-miterlimit="10" stroke-linecap="round"/>
<path d="M133.097 22.9465V37.2917" stroke="#8E8E8C" stroke-width="2" stroke-miterlimit="10" stroke-linecap="round"/>
<path d="M139.387 19.7878V40.4504" stroke="#8E8E8C" stroke-width="2" stroke-miterlimit="10" stroke-linecap="round"/>
<path d="M145.678 15.2217V45.0167" stroke="#8E8E8C" stroke-width="2" stroke-miterlimit="10" stroke-linecap="round"/>
<path d="M151.968 14.2322V46.0058" stroke="#8E8E8C" stroke-width="2" stroke-miterlimit="10" stroke-linecap="round"/>
<path d="M158.258 16.8198V43.4182" stroke="#8E8E8C" stroke-width="2" stroke-miterlimit="10" stroke-linecap="round"/>
<path d="M164.549 17.3071V42.9313" stroke="#8E8E8C" stroke-width="2" stroke-miterlimit="10" stroke-linecap="round"/>
<path d="M170.839 17.0852V43.1529" stroke="#8E8E8C" stroke-width="2" stroke-miterlimit="10" stroke-linecap="round"/>
<path d="M177.129 16.3179V43.9204" stroke="#8E8E8C" stroke-width="2" stroke-miterlimit="10" stroke-linecap="round"/>
<path d="M183.419 15.4033V44.8348" stroke="#8E8E8C" stroke-width="2" stroke-miterlimit="10" stroke-linecap="round"/>
<path d="M189.71 16.2007V44.0377" stroke="#8E8E8C" stroke-width="2" stroke-miterlimit="10" stroke-linecap="round"/>
<path d="M196 16.2563V43.9818" stroke="#8E8E8C" stroke-width="2" stroke-miterlimit="10" stroke-linecap="round"/>
<path d="M202.29 15.7786V44.4596" stroke="#8E8E8C" stroke-width="2" stroke-miterlimit="10" stroke-linecap="round"/>
<path d="M208.58 15.3535V44.8846" stroke="#8E8E8C" stroke-width="2" stroke-miterlimit="10" stroke-linecap="round"/>
<path d="M214.871 16.4146V43.8236" stroke="#8E8E8C" stroke-width="2" stroke-miterlimit="10" stroke-linecap="round"/>
<path d="M221.161 14.0063V46.2315" stroke="#8E8E8C" stroke-width="2" stroke-miterlimit="10" stroke-linecap="round"/>
<path d="M227.451 16.813V43.4249" stroke="#8E8E8C" stroke-width="2" stroke-miterlimit="10" stroke-linecap="round"/>
<path d="M233.742 16.8816V43.3564" stroke="#8E8E8C" stroke-width="2" stroke-miterlimit="10" stroke-linecap="round"/>
<path d="M240.032 16.4609V43.7774" stroke="#8E8E8C" stroke-width="2" stroke-miterlimit="10" stroke-linecap="round"/>
<path d="M246.322 16.9539V43.2842" stroke="#8E8E8C" stroke-width="2" stroke-miterlimit="10" stroke-linecap="round"/>
<path d="M252.613 15.8589V44.3791" stroke="#8E8E8C" stroke-width="2" stroke-miterlimit="10" stroke-linecap="round"/>
<path d="M258.903 16.5452V43.6931" stroke="#8E8E8C" stroke-width="2" stroke-miterlimit="10" stroke-linecap="round"/>
<path d="M265.193 16.4478V43.7906" stroke="#8E8E8C" stroke-width="2" stroke-miterlimit="10" stroke-linecap="round"/>
<path d="M271.483 15.7751V44.4629" stroke="#8E8E8C" stroke-width="2" stroke-miterlimit="10" stroke-linecap="round"/>
<path d="M277.774 16.1924V44.0455" stroke="#8E8E8C" stroke-width="2" stroke-miterlimit="10" stroke-linecap="round"/>
<path d="M284.064 23.6821V36.5557" stroke="#8E8E8C" stroke-width="2" stroke-miterlimit="10" stroke-linecap="round"/>
<path d="M290.354 18.8V41.438" stroke="#8E8E8C" stroke-width="2" stroke-miterlimit="10" stroke-linecap="round"/>
<path d="M296.646 16.2251V44.0128" stroke="#8E8E8C" stroke-width="2" stroke-miterlimit="10" stroke-linecap="round"/>
<path d="M302.936 15.9575V44.2804" stroke="#8E8E8C" stroke-width="2" stroke-miterlimit="10" stroke-linecap="round"/>
<path d="M309.226 18.0073V42.231" stroke="#8E8E8C" stroke-width="2" stroke-miterlimit="10" stroke-linecap="round"/>
<path d="M315.517 22.4397V37.7985" stroke="#8E8E8C" stroke-width="2" stroke-miterlimit="10" stroke-linecap="round"/>
<path d="M321.807 24.231V36.0074" stroke="#8E8E8C" stroke-width="2" stroke-miterlimit="10" stroke-linecap="round"/>
<path d="M328.097 23.3809V36.8574" stroke="#8E8E8C" stroke-width="2" stroke-miterlimit="10" stroke-linecap="round"/>
<path d="M334.387 24.7065V35.5319" stroke="#8E8E8C" stroke-width="2" stroke-miterlimit="10" stroke-linecap="round"/>
<path d="M340.678 24.3643V35.8737" stroke="#8E8E8C" stroke-width="2" stroke-miterlimit="10" stroke-linecap="round"/>
<path d="M346.968 23.4629V36.7755" stroke="#8E8E8C" stroke-width="2" stroke-miterlimit="10" stroke-linecap="round"/>
<path d="M353.258 20.4861V39.752" stroke="#8E8E8C" stroke-width="2" stroke-miterlimit="10" stroke-linecap="round"/>
<path d="M359.549 15.4343V44.8037" stroke="#8E8E8C" stroke-width="2" stroke-miterlimit="10" stroke-linecap="round"/>
<path d="M365.839 12.4995V47.7388" stroke="#8E8E8C" stroke-width="2" stroke-miterlimit="10" stroke-linecap="round"/>
<path d="M372.129 14.3157V45.9224" stroke="#8E8E8C" stroke-width="2" stroke-miterlimit="10" stroke-linecap="round"/>
<path d="M378.419 15.084V45.1541" stroke="#8E8E8C" stroke-width="2" stroke-miterlimit="10" stroke-linecap="round"/>
<path d="M384.71 10.2029V50.0353" stroke="#8E8E8C" stroke-width="2" stroke-miterlimit="10" stroke-linecap="round"/>
<path d="M391 1V59.2381" stroke="#8E8E8C" stroke-width="2" stroke-miterlimit="10" stroke-linecap="round"/>
</svg>
