<svg width="25" height="25" viewBox="0 0 25 25" fill="none" xmlns="http://www.w3.org/2000/svg">
<path d="M12.3596 2.36851C15.6619 2.36851 16.053 2.38299 17.3517 2.44093C18.5587 2.49404 19.2105 2.69681 19.645 2.86579C20.2195 3.08788 20.6347 3.35824 21.0644 3.78793C21.4989 4.22245 21.7645 4.63283 21.9866 5.20735C22.1556 5.64187 22.3583 6.29847 22.4114 7.50064C22.4694 8.80419 22.4839 9.19526 22.4839 12.4928C22.4839 15.7951 22.4694 16.1862 22.4114 17.4849C22.3583 18.6919 22.1556 19.3436 21.9866 19.7782C21.7645 20.3527 21.4941 20.7679 21.0644 21.1976C20.6299 21.6321 20.2195 21.8976 19.645 22.1197C19.2105 22.2887 18.5539 22.4915 17.3517 22.5446C16.0482 22.6025 15.6571 22.617 12.3596 22.617C9.05727 22.617 8.66621 22.6025 7.36748 22.5446C6.16049 22.4915 5.50871 22.2887 5.0742 22.1197C4.49967 21.8976 4.08446 21.6273 3.65477 21.1976C3.22026 20.7631 2.95472 20.3527 2.73263 19.7782C2.56365 19.3436 2.36088 18.687 2.30777 17.4849C2.24983 16.1813 2.23535 15.7903 2.23535 12.4928C2.23535 9.19043 2.24983 8.79936 2.30777 7.50064C2.36088 6.29365 2.56365 5.64187 2.73263 5.20735C2.95472 4.63283 3.22508 4.21762 3.65477 3.78793C4.08929 3.35341 4.49967 3.08788 5.0742 2.86579C5.50871 2.69681 6.16532 2.49404 7.36748 2.44093C8.66621 2.38299 9.05727 2.36851 12.3596 2.36851ZM12.3596 0.142815C9.00416 0.142815 8.58413 0.157299 7.26609 0.215234C5.95289 0.27317 5.05006 0.4856 4.26792 0.789762C3.452 1.10841 2.7616 1.52844 2.07603 2.21884C1.38563 2.90441 0.965594 3.59481 0.646948 4.40591C0.342786 5.19287 0.130355 6.09087 0.0724195 7.40408C0.0144839 8.72694 0 9.14698 0 12.5024C0 15.8579 0.0144839 16.2779 0.0724195 17.5959C0.130355 18.9091 0.342786 19.812 0.646948 20.5941C0.965594 21.41 1.38563 22.1004 2.07603 22.786C2.7616 23.4716 3.452 23.8964 4.2631 24.2102C5.05006 24.5144 5.94806 24.7268 7.26127 24.7848C8.5793 24.8427 8.99933 24.8572 12.3548 24.8572C15.7102 24.8572 16.1302 24.8427 17.4483 24.7848C18.7615 24.7268 19.6643 24.5144 20.4465 24.2102C21.2575 23.8964 21.9479 23.4716 22.6335 22.786C23.3191 22.1004 23.744 21.41 24.0578 20.5989C24.3619 19.812 24.5744 18.914 24.6323 17.6008C24.6902 16.2827 24.7047 15.8627 24.7047 12.5072C24.7047 9.15181 24.6902 8.73177 24.6323 7.41374C24.5744 6.10053 24.3619 5.1977 24.0578 4.41557C23.7536 3.59481 23.3336 2.90441 22.6432 2.21884C21.9576 1.53327 21.2672 1.10841 20.4561 0.79459C19.6691 0.490428 18.7711 0.277998 17.4579 0.220062C16.1351 0.157299 15.715 0.142815 12.3596 0.142815Z" fill="black" fill-opacity="0.7"/>
<path d="M12.3595 6.15382C8.85442 6.15382 6.01074 8.9975 6.01074 12.5026C6.01074 16.0077 8.85442 18.8514 12.3595 18.8514C15.8646 18.8514 18.7083 16.0077 18.7083 12.5026C18.7083 8.9975 15.8646 6.15382 12.3595 6.15382ZM12.3595 16.6209C10.0855 16.6209 8.24126 14.7766 8.24126 12.5026C8.24126 10.2286 10.0855 8.38435 12.3595 8.38435C14.6335 8.38435 16.4778 10.2286 16.4778 12.5026C16.4778 14.7766 14.6335 16.6209 12.3595 16.6209Z" fill="black" fill-opacity="0.7"/>
<path d="M20.4419 5.90256C20.4419 6.72332 19.7757 7.38475 18.9597 7.38475C18.139 7.38475 17.4775 6.71849 17.4775 5.90256C17.4775 5.08181 18.1438 4.42038 18.9597 4.42038C19.7757 4.42038 20.4419 5.08664 20.4419 5.90256Z" fill="black" fill-opacity="0.7"/>
</svg>
