<svg width="25" height="21" viewBox="0 0 25 21" fill="none" xmlns="http://www.w3.org/2000/svg">
<path d="M7.86475 21C17.2964 21 22.4565 12.9198 22.4565 5.91488C22.4565 5.68773 22.4517 5.45552 22.4419 5.22837C23.4457 4.47789 24.312 3.54832 25 2.48333C24.0651 2.91333 23.0725 3.19416 22.0562 3.31623C23.1263 2.65305 23.9276 1.61124 24.3115 0.383908C23.3047 1.00074 22.2037 1.43586 21.0557 1.67062C20.2821 0.820901 19.2594 0.258289 18.1455 0.0697642C17.0316 -0.118761 15.8887 0.0773017 14.8935 0.627639C13.8982 1.17798 13.106 2.05193 12.6394 3.11439C12.1728 4.17685 12.0577 5.36864 12.312 6.50549C10.2734 6.39973 8.2791 5.85225 6.45831 4.89856C4.63753 3.94487 3.03093 2.60624 1.74268 0.969463C1.08792 2.13651 0.887559 3.51751 1.18232 4.83179C1.47709 6.14606 2.24486 7.295 3.32959 8.04509C2.51524 8.01836 1.71872 7.7917 1.00586 7.38382V7.44944C1.00513 8.67417 1.41469 9.86136 2.16491 10.8092C2.91513 11.7571 3.95971 12.4071 5.12109 12.6488C4.36672 12.8621 3.57498 12.8932 2.80713 12.7396C3.13485 13.7929 3.77247 14.7141 4.63101 15.3747C5.48955 16.0353 6.52617 16.4024 7.59619 16.4246C5.77961 17.8998 3.5356 18.6999 1.22559 18.6961C0.815924 18.6955 0.406666 18.6695 0 18.6184C2.34673 20.1748 5.07659 21.0015 7.86475 21Z" fill="black" fill-opacity="0.7"/>
</svg>
