<svg width="26" height="19" viewBox="0 0 26 19" fill="none" xmlns="http://www.w3.org/2000/svg">
<path d="M25.1781 4.55857C25.1781 4.55857 24.9367 2.8543 24.1931 2.10597C23.2517 1.12106 22.1992 1.11623 21.7164 1.0583C18.2596 0.807241 13.0695 0.807241 13.0695 0.807241H13.0598C13.0598 0.807241 7.86978 0.807241 4.41296 1.0583C3.93016 1.11623 2.87766 1.12106 1.93621 2.10597C1.1927 2.8543 0.956133 4.55857 0.956133 4.55857C0.956133 4.55857 0.705078 6.56218 0.705078 8.56096V10.4342C0.705078 12.433 0.951305 14.4366 0.951305 14.4366C0.951305 14.4366 1.1927 16.1409 1.93138 16.8892C2.87284 17.8741 4.1088 17.8403 4.65918 17.9465C6.63865 18.1348 13.0647 18.1928 13.0647 18.1928C13.0647 18.1928 18.2596 18.1831 21.7164 17.9369C22.1992 17.8789 23.2517 17.8741 24.1931 16.8892C24.9367 16.1409 25.1781 14.4366 25.1781 14.4366C25.1781 14.4366 25.4243 12.4378 25.4243 10.4342V8.56096C25.4243 6.56218 25.1781 4.55857 25.1781 4.55857ZM10.5107 12.7082V5.76074L17.1878 9.24653L10.5107 12.7082Z" fill="black" fill-opacity="0.7"/>
</svg>
